Coordinates
version=1
nRows=5
nColumns=46
inDegrees=yes

Units are S.I. units (second, meters, Newtons, ...)
Angles are in degrees.

endheader
time	pelvis_tilt	pelvis_list	pelvis_rotation	pelvis_tx	pelvis_ty	pelvis_tz	bb_angle	bb_tx	bb_ty	bb_tz	hip_flexion_r	hip_adduction_r	hip_rotation_r	knee_angle_r	knee_angle_r_beta	ankle_angle_r	subtalar_angle_r	mtp_angle_r	crank_angle_r	hip_flexion_l	hip_adduction_l	hip_rotation_l	knee_angle_l	knee_angle_l_beta	ankle_angle_l	subtalar_angle_l	mtp_angle_l	crank_angle_l	lumbar_extension	lumbar_bending	lumbar_rotation	arm_flex_r	arm_add_r	arm_rot_r	elbow_flex_r	pro_sup_r	wrist_flex_r	wrist_dev_r	arm_flex_l	arm_add_l	arm_rot_l	elbow_flex_l	pro_sup_l	wrist_flex_l	wrist_dev_l
      5.00500000	    -10.20918922	      5.05205321	     15.26477455	      0.07364829	      1.16514724	     -0.22728607	      0.00000000	      0.50000000	      0.00000000	      0.25000000	     58.32564938	    -13.28352901	      4.58047979	     91.60988013	      1.59889404	    -26.05439021	    -10.92159786	      0.00000000	      0.00000000	     53.89858020	      9.97699277	      4.78521979	     52.48560005	      0.91604653	     15.43101211	     -2.76891592	      0.00000000	      0.00000000	    -65.00913406	      7.24728259	     -9.76550738	     89.31169772	    -17.10297324	     38.39309548	     51.69724246	     39.81064684	      0.00000000	      0.00000000	     89.82057518	    -14.38689411	     40.47421439	     57.26213672	     22.52417167	      0.00000000	      0.00000000
      5.01000000	     -9.79999159	      4.62686869	     14.91655358	      0.07455562	      1.16528173	     -0.22870858	      0.00000000	      0.50000000	      0.00000000	      0.25000000	     59.47990121	    -12.87173053	      4.85080056	     93.20092635	      1.62666303	    -27.81154775	    -10.23005523	      0.00000000	      0.00000000	     51.85134124	      9.15503803	      4.75441032	     50.02225146	      0.87305299	     14.92686213	     -1.98547934	      0.00000000	      0.00000000	    -64.94762486	      7.56950214	     -9.46166076	     89.36666625	    -16.58862898	     38.93455130	     50.91968344	     39.63052077	      0.00000000	      0.00000000	     89.81641769	    -14.92092032	     41.27589846	     56.55162233	     22.51609346	      0.00000000	      0.00000000
      5.01500000	     -9.48387962	      3.98531168	     14.55571487	      0.07542951	      1.16528968	     -0.23041369	      0.00000000	      0.50000000	      0.00000000	      0.25000000	     60.70080986	    -12.36117486	      4.86966833	     94.64832214	      1.65192485	    -29.45790453	     -9.47981644	      0.00000000	      0.00000000	     50.00489934	      8.22002936	      4.90235815	     47.69963952	      0.83251576	     14.44196061	     -1.35006598	      0.00000000	      0.00000000	    -64.88571834	      8.07164270	     -8.78069963	     89.40160327	    -16.28355713	     39.16184443	     50.77430235	     39.60490062	      0.00000000	      0.00000000	     89.80325521	    -15.27113868	     41.46560913	     56.20437495	     22.48781905	      0.00000000	      0.00000000
      5.02000000	     -8.78528350	      3.83873102	     13.89658776	      0.07655468	      1.16596874	     -0.23170613	      0.00000000	      0.50000000	      0.00000000	      0.25000000	     61.57427213	    -11.85550864	      5.38060050	     96.03579444	      1.67614081	    -31.44699184	     -9.07624961	      0.00000000	      0.00000000	     47.59887140	      7.37557188	      4.43146515	     45.27215230	      0.79014812	     13.61234998	     -0.54322561	      0.00000000	      0.00000000	    -65.08844151	      8.08448314	     -8.47446407	     89.44048563	    -15.73899787	     39.88316749	     49.84795606	     39.41119168	      0.00000000	      0.00000000	     89.80719151	    -15.65165713	     42.64699373	     55.04657394	     22.38814875	      0.00000000	      0.00000000
      5.02500000	     -8.36704866	      3.36548304	     13.33876495	      0.07745801	      1.16614719	     -0.23336186	      0.00000000	      0.50000000	      0.00000000	      0.25000000	     62.72221147	    -11.24822038	      5.65942171	     97.33700039	      1.69885114	    -33.04252833	     -8.44926757	      0.00000000	      0.00000000	     45.65862046	      6.44371670	      4.27966101	     43.08130968	      0.75191070	     12.81080250	      0.13558822	      0.00000000	      0.00000000	    -64.93836203	      8.37909780	     -8.02542253	     89.49762917	    -14.99073702	     40.71325388	     48.55918321	     38.99879463	      0.00000000	      0.00000000	     89.80386488	    -16.07446098	     43.82070440	     53.80099672	     22.38924833	      0.00000000	      0.00000000
